# xmcd
#
# Track frame offsets:
#	150
#	14727
#	32756
#	48774
#	68106
#	84904
#	103160
#	121125
#	141751
#	160625
#	182709
#	201483
#
# Disc length: 3048 seconds
#
# Revision: 0
# Processed by: cddbd v1.5.2PL0 Copyright (c) Steve Scherf et al.
# Submitted via: audiograbber 1.83.01
#
DISCID=9e0be60c
DTITLE=Gary Hoey - American Made
DYEAR=2006
DGENRE=
TTITLE0=Shed My Skin
TTITLE1=Lunatic Fringe
TTITLE2=Reaction
TTITLE3=Psychedelic Psycho
TTITLE4=Fly on the Wall
TTITLE5=American Made
TTITLE6=Welcome to My World
TTITLE7=Gonzo Guru
TTITLE8=Fades Away
TTITLE9=Truth
TTITLE10=Tribal Mania
TTITLE11=The Deep
EXTD=
EXTT0=
EXTT1=
EXTT2=
EXTT3=
EXTT4=
EXTT5=
EXTT6=
EXTT7=
EXTT8=
EXTT9=
EXTT10=
EXTT11=
PLAYORDER=
